# File created by Blade
# Date/Time:  Thu Sep 25 19:43:58 2014
# Frame Rate: 120.000 fps
#------------------------------------------------------
:FULLY-SPECIFIED
:DEGREES
829
root 2.488512 14.516794 -10.521307 21.084753 30.552022 -18.163867
Spine 11.427081 4.447164 -36.889514
Head -6.841339 -22.846286 -17.087691
LeftShoulder 4.951537 4.899250 17.352596
LeftArm 28.946402 8.482093 -40.330523
LeftForeArm 23.022762 -0.000000 16.587571
LeftHand -36.212793 -0.000000 104.291121
LeftHandThumb1 -26.253704 0.000000 33.147579
RightShoulder -17.141093 27.979401 -54.837943
RightArm 70.460724 40.252553 45.174744
RightForeArm 26.915031 -0.000000 22.841507
RightHand 3.221412 -0.000000 -5.798909
RightHandThumb1 -24.326973 -0.000000 -32.862282
LeftUpLeg -134.171516 34.355019 -4.368225
LeftLeg 117.910484 -0.000000 -0.000000
LeftFoot -22.065055 -22.832331 -5.746229
LeftToeBase 5.824952 -0.000000 -0.000000
RightUpLeg -2.840218 -26.500020 -38.596611
RightLeg 10.196179 -0.000000 -0.000000
RightFoot 5.330267 -29.378149 -1.063615
RightToeBase 7.593458 -0.000000 -0.000000
830
root 2.468420 14.544440 -10.516232 21.298105 30.830530 -18.072263
Spine 11.436309 4.342212 -36.928860
Head -6.578185 -22.859501 -16.992469
LeftShoulder 5.047328 4.877592 17.324019
LeftArm 29.043967 8.724037 -39.956561
LeftForeArm 22.852501 0.000000 16.636714
LeftHand -36.259659 -0.000000 104.080177
LeftHandThumb1 -26.253704 0.000000 33.147579
RightShoulder -17.084887 27.858956 -54.681041
RightArm 70.460598 40.341934 45.011660
RightForeArm 26.900502 -0.000000 22.788209
RightHand 3.209743 -0.000000 -5.796878
RightHandThumb1 -24.326973 -0.000000 -32.862282
LeftUpLeg -134.459200 34.157469 -4.802266
LeftLeg 117.722132 -0.000000 -0.000000
LeftFoot -21.912029 -23.038592 -5.508526
LeftToeBase 5.811439 -0.000000 -0.000000
RightUpLeg -2.776123 -26.585213 -38.529799
RightLeg 10.187565 -0.000000 -0.000000
RightFoot 5.258940 -29.577992 -0.965471
RightToeBase 7.563179 -0.000000 -0.000000
831
root 2.449126 14.567733 -10.512525 21.491737 31.109702 -18.016308
Spine 11.424449 4.233631 -36.898272
Head -6.276328 -22.890276 -16.945218
LeftShoulder 5.145092 4.927880 17.244008
LeftArm 29.187828 8.890516 -39.580420
LeftForeArm 22.620974 0.000000 16.681463
LeftHand -36.265818 -0.000000 103.935294
LeftHandThumb1 -26.253704 0.000000 33.147579
RightShoulder -17.002519 27.751181 -54.559715
RightArm 70.463570 40.436216 44.914299
RightForeArm 26.855224 -0.000000 22.784769
RightHand 3.195700 -0.000000 -5.825709
RightHandThumb1 -24.326973 -0.000000 -32.862282
LeftUpLeg -134.762311 33.962130 -5.207857
LeftLeg 117.552410 -0.000000 -0.000000
LeftFoot -21.715603 -23.238695 -5.322996
LeftToeBase 5.724841 -0.000000 -0.000000
RightUpLeg -2.728518 -26.651805 -38.436362
RightLeg 10.198366 -0.000000 -0.000000
RightFoot 5.188119 -29.792221 -0.871490
RightToeBase 7.570362 -0.000000 -0.000000
832
root 2.431446 14.588478 -10.506222 21.672374 31.395837 -17.923343
Spine 11.445860 4.132934 -36.907716
Head -5.960919 -22.901613 -16.824638
LeftShoulder 5.249752 4.974516 17.206521
LeftArm 29.330202 9.096928 -39.209463
LeftForeArm 22.476937 0.000000 16.706911
LeftHand -36.357066 -0.000000 103.799571
LeftHandThumb1 -26.253704 0.000000 33.147579
RightShoulder -16.894149 27.617072 -54.367627
RightArm 70.490293 40.567643 44.750700
RightForeArm 26.820239 -0.000000 22.735577
RightHand 3.312064 0.000000 -5.720063
RightHandThumb1 -24.326973 -0.000000 -32.862282
LeftUpLeg -135.037676 33.731208 -5.630219
LeftLeg 117.367410 -0.000000 -0.000000
LeftFoot -21.495902 -23.405133 -5.284878
LeftToeBase 5.900926 -0.000000 -0.000000
RightUpLeg -2.619326 -26.721118 -38.397641
RightLeg 10.195882 -0.000000 -0.000000
RightFoot 5.055289 -29.971386 -0.733745
RightToeBase 7.636871 -0.000000 -0.000000
833
root 2.415384 14.606466 -10.501159 21.832649 31.662622 -17.856378
Spine 11.453726 4.087346 -36.875299
Head -5.627227 -22.924596 -16.739075
LeftShoulder 5.400590 4.969659 17.163207
LeftArm 29.420578 9.292816 -38.898285
LeftForeArm 22.298036 -0.000000 16.757339
LeftHand -36.368256 -0.000000 103.645903
LeftHandThumb1 -26.253704 0.000000 33.147579
RightShoulder -16.776276 27.517379 -54.202119
RightArm 70.509274 40.701635 44.614886
RightForeArm 26.810222 -0.000000 22.674488
RightHand 3.248572 0.000000 -5.793043
RightHandThumb1 -24.326973 -0.000000 -32.862282
LeftUpLeg -135.299815 33.538244 -6.010116
LeftLeg 117.226757 -0.000000 -0.000000
LeftFoot -21.394776 -23.554928 -4.975245
LeftToeBase 5.981336 -0.000000 -0.000000
RightUpLeg -2.536756 -26.774286 -38.345033
RightLeg 10.214755 -0.000000 -0.000000
RightFoot 4.939122 -30.141630 -0.590872
RightToeBase 7.654614 -0.000000 -0.000000
